<?xml version="1.0" encoding="UTF-8" standalone="no"?>
<!DOCTYPE svg PUBLIC "-//W3C//DTD SVG 1.1//EN"
 "http://www.w3.org/Graphics/SVG/1.1/DTD/svg11.dtd">
<!-- Generated by graphviz version 2.40.1 (20161225.0304)
 -->
<!-- Title: dependencies Pages: 1 -->
<svg width="504pt" height="211pt"
 viewBox="0.00 0.00 504.00 211.00" xmlns="http://www.w3.org/2000/svg" xmlns:xlink="http://www.w3.org/1999/xlink">
<g id="graph0" class="graph" transform="scale(1 1) rotate(0) translate(4 207)">
<title>dependencies</title>
<polygon fill="#ffffff" stroke="transparent" points="-4,4 -4,-207 500,-207 500,4 -4,4"/>
<text text-anchor="start" x="227.0091" y="-42.4" font-family="sans-serif" font-weight="bold" font-size="14.00" fill="#000000">Legend</text>
<polygon fill="#ffffb3" stroke="transparent" points="14,-10 14,-30 34,-30 34,-10 14,-10"/>
<text text-anchor="start" x="37.629" y="-15.4" font-family="sans-serif" font-size="14.00" fill="#000000"> &#160;Declarations</text>
<polygon fill="#8dd3c7" stroke="transparent" points="127,-10 127,-30 147,-30 147,-10 127,-10"/>
<text text-anchor="start" x="150.7251" y="-15.4" font-family="sans-serif" font-size="14.00" fill="#000000"> &#160;Module</text>
<polygon fill="#80b1d3" stroke="transparent" points="213,-10 213,-30 233,-30 233,-10 213,-10"/>
<text text-anchor="start" x="236.7812" y="-15.4" font-family="sans-serif" font-size="14.00" fill="#000000"> &#160;Bootstrap</text>
<polygon fill="#fdb462" stroke="transparent" points="310,-10 310,-30 330,-30 330,-10 310,-10"/>
<text text-anchor="start" x="333.6732" y="-15.4" font-family="sans-serif" font-size="14.00" fill="#000000"> &#160;Providers</text>
<polygon fill="#fb8072" stroke="transparent" points="406,-10 406,-30 426,-30 426,-10 406,-10"/>
<text text-anchor="start" x="429.7258" y="-15.4" font-family="sans-serif" font-size="14.00" fill="#000000"> &#160;Exports</text>
<g id="clust1" class="cluster">
<title>cluster_WeatherModule</title>
<polygon fill="none" stroke="#000000" stroke-dasharray="1,5" points="17.5,-70 17.5,-195 478.5,-195 478.5,-70 17.5,-70"/>
</g>
<g id="clust2" class="cluster">
<title>cluster_WeatherModule_declarations</title>
<polygon fill="none" stroke="#000000" points="326.5,-78 326.5,-130 470.5,-130 470.5,-78 326.5,-78"/>
</g>
<g id="clust4" class="cluster">
<title>cluster_WeatherModule_imports</title>
<polygon fill="none" stroke="#000000" points="25.5,-78 25.5,-130 318.5,-130 318.5,-78 25.5,-78"/>
</g>
<!-- WeatherComponent -->
<g id="node1" class="node">
<title>WeatherComponent</title>
<polygon fill="#ffffb3" stroke="#000000" points="462.7423,-122 334.2577,-122 334.2577,-86 462.7423,-86 462.7423,-122"/>
<text text-anchor="middle" x="398.5" y="-99.8" font-family="Times,serif" font-size="14.00" fill="#000000">WeatherComponent</text>
</g>
<!-- WeatherModule -->
<g id="node2" class="node">
<title>WeatherModule</title>
<polygon fill="#8dd3c7" stroke="#000000" points="310.9594,-187 307.9594,-191 286.9594,-191 283.9594,-187 204.0406,-187 204.0406,-151 310.9594,-151 310.9594,-187"/>
<text text-anchor="middle" x="257.5" y="-164.8" font-family="Times,serif" font-size="14.00" fill="#000000">WeatherModule</text>
</g>
<!-- WeatherComponent&#45;&gt;WeatherModule -->
<g id="edge1" class="edge">
<title>WeatherComponent&#45;&gt;WeatherModule</title>
<path fill="none" stroke="#000000" d="M398.5,-122.1061C398.5,-141.3391 398.5,-169 398.5,-169 398.5,-169 321.2083,-169 321.2083,-169"/>
<polygon fill="#000000" stroke="#000000" points="321.2083,-165.5001 311.2083,-169 321.2082,-172.5001 321.2083,-165.5001"/>
</g>
<!-- MaterialModule -->
<g id="node3" class="node">
<title>MaterialModule</title>
<polygon fill="#8dd3c7" stroke="#000000" points="310.9706,-122 307.9706,-126 286.9706,-126 283.9706,-122 204.0294,-122 204.0294,-86 310.9706,-86 310.9706,-122"/>
<text text-anchor="middle" x="257.5" y="-99.8" font-family="Times,serif" font-size="14.00" fill="#000000">MaterialModule</text>
</g>
<!-- MaterialModule&#45;&gt;WeatherModule -->
<g id="edge2" class="edge">
<title>MaterialModule&#45;&gt;WeatherModule</title>
<path fill="none" stroke="#000000" d="M257.5,-122.1061C257.5,-122.1061 257.5,-140.991 257.5,-140.991"/>
<polygon fill="#000000" stroke="#000000" points="254.0001,-140.9909 257.5,-150.991 261.0001,-140.991 254.0001,-140.9909"/>
</g>
<!-- WeatherRoutingModule -->
<g id="node4" class="node">
<title>WeatherRoutingModule</title>
<polygon fill="#8dd3c7" stroke="#000000" points="185.5772,-122 182.5772,-126 161.5772,-126 158.5772,-122 33.4228,-122 33.4228,-86 185.5772,-86 185.5772,-122"/>
<text text-anchor="middle" x="109.5" y="-99.8" font-family="Times,serif" font-size="14.00" fill="#000000">WeatherRoutingModule</text>
</g>
<!-- WeatherRoutingModule&#45;&gt;WeatherModule -->
<g id="edge3" class="edge">
<title>WeatherRoutingModule&#45;&gt;WeatherModule</title>
<path fill="none" stroke="#000000" d="M109.5,-122.1061C109.5,-141.3391 109.5,-169 109.5,-169 109.5,-169 193.6499,-169 193.6499,-169"/>
<polygon fill="#000000" stroke="#000000" points="193.65,-172.5001 203.6499,-169 193.6499,-165.5001 193.65,-172.5001"/>
</g>
</g>
</svg>
